<svg xmlns="http://www.w3.org/2000/svg" xmlns:xlink="http://www.w3.org/1999/xlink" width="500" zoomAndPan="magnify" viewBox="0 0 375 374.999991" height="500" preserveAspectRatio="xMidYMid meet" version="1.0"><defs><g/><clipPath id="352bce4d2f"><path d="M 159.300781 117 L 176 117 L 176 157 L 159.300781 157 Z M 159.300781 117 " clip-rule="nonzero"/></clipPath><clipPath id="7884e832c4"><path d="M 175 156 L 193 156 L 193 195.371094 L 175 195.371094 Z M 175 156 " clip-rule="nonzero"/></clipPath><clipPath id="ee01ed3883"><path d="M 182 110.621094 L 199 110.621094 L 199 150 L 182 150 Z M 182 110.621094 " clip-rule="nonzero"/></clipPath><clipPath id="b60136e784"><path d="M 198 149 L 215.550781 149 L 215.550781 189 L 198 189 Z M 198 149 " clip-rule="nonzero"/></clipPath></defs><g clip-path="url(#352bce4d2f)"><path fill="#279b48" d="M 159.207031 127.277344 L 159.207031 156.019531 L 175.6875 156.019531 L 175.6875 117.007812 Z M 159.207031 127.277344 " fill-opacity="1" fill-rule="nonzero"/></g><g clip-path="url(#7884e832c4)"><path fill="#279b48" d="M 175.6875 195.054688 L 192.167969 184.761719 L 192.167969 156.019531 L 175.6875 156.019531 Z M 175.6875 195.054688 " fill-opacity="1" fill-rule="nonzero"/></g><g clip-path="url(#ee01ed3883)"><path fill="#f7941d" d="M 182.445312 121.003906 L 182.445312 149.746094 L 198.929688 149.746094 L 198.929688 110.710938 Z M 182.445312 121.003906 " fill-opacity="1" fill-rule="nonzero"/></g><g clip-path="url(#b60136e784)"><path fill="#f7941d" d="M 198.929688 149.746094 L 198.929688 188.757812 L 215.410156 178.488281 L 215.410156 149.746094 Z M 198.929688 149.746094 " fill-opacity="1" fill-rule="nonzero"/></g><g fill="#ffffff" fill-opacity="1"><g transform="translate(59.739676, 227.716334)"><g><path d="M 15.15625 0 L 11.53125 -6 C 11.34375 -5.976562 11.046875 -5.96875 10.640625 -5.96875 L 5.9375 -5.96875 L 5.9375 0 L 2.609375 0 L 2.609375 -19.796875 L 10.640625 -19.796875 C 13.160156 -19.796875 15.117188 -19.207031 16.515625 -18.03125 C 17.910156 -16.851562 18.609375 -15.1875 18.609375 -13.03125 C 18.609375 -11.445312 18.253906 -10.109375 17.546875 -9.015625 C 16.835938 -7.921875 15.828125 -7.125 14.515625 -6.625 L 18.953125 0 Z M 5.9375 -8.96875 L 10.640625 -8.96875 C 13.835938 -8.96875 15.4375 -10.296875 15.4375 -12.953125 C 15.4375 -15.515625 13.835938 -16.796875 10.640625 -16.796875 L 5.9375 -16.796875 Z M 5.9375 -8.96875 "/></g></g></g><g fill="#ffffff" fill-opacity="1"><g transform="translate(86.481536, 227.716334)"><g><path d="M 3.984375 -17 C 6.003906 -18.914062 8.492188 -19.875 11.453125 -19.875 C 14.410156 -19.875 16.898438 -18.914062 18.921875 -17 C 20.941406 -15.09375 21.953125 -12.722656 21.953125 -9.890625 C 21.953125 -7.066406 20.941406 -4.6875 18.921875 -2.75 C 16.898438 -0.820312 14.410156 0.140625 11.453125 0.140625 C 8.492188 0.140625 6.003906 -0.820312 3.984375 -2.75 C 1.972656 -4.6875 0.96875 -7.066406 0.96875 -9.890625 C 0.96875 -12.722656 1.972656 -15.09375 3.984375 -17 Z M 11.484375 -16.890625 C 9.523438 -16.890625 7.847656 -16.210938 6.453125 -14.859375 C 5.054688 -13.515625 4.359375 -11.859375 4.359375 -9.890625 C 4.359375 -7.929688 5.054688 -6.269531 6.453125 -4.90625 C 7.859375 -3.539062 9.53125 -2.859375 11.46875 -2.859375 C 13.414062 -2.859375 15.078125 -3.539062 16.453125 -4.90625 C 17.835938 -6.269531 18.53125 -7.929688 18.53125 -9.890625 C 18.53125 -11.859375 17.835938 -13.515625 16.453125 -14.859375 C 15.078125 -16.210938 13.421875 -16.890625 11.484375 -16.890625 Z M 11.484375 -16.890625 "/></g></g></g><g fill="#ffffff" fill-opacity="1"><g transform="translate(115.682502, 227.716334)"><g><path d="M 2.609375 -19.796875 L 11.203125 -19.796875 C 13.253906 -19.796875 14.875 -19.359375 16.0625 -18.484375 C 17.25 -17.609375 17.84375 -16.394531 17.84375 -14.84375 C 17.84375 -13.726562 17.53125 -12.78125 16.90625 -12 C 16.289062 -11.21875 15.441406 -10.695312 14.359375 -10.4375 C 15.679688 -10.207031 16.71875 -9.648438 17.46875 -8.765625 C 18.226562 -7.878906 18.609375 -6.769531 18.609375 -5.4375 C 18.609375 -3.738281 17.96875 -2.40625 16.6875 -1.4375 C 15.40625 -0.476562 13.640625 0 11.390625 0 L 2.609375 0 Z M 5.9375 -16.828125 L 5.9375 -11.59375 L 11.03125 -11.59375 C 12.082031 -11.59375 12.910156 -11.828125 13.515625 -12.296875 C 14.117188 -12.773438 14.421875 -13.425781 14.421875 -14.25 C 14.421875 -15.082031 14.125 -15.71875 13.53125 -16.15625 C 12.9375 -16.601562 12.101562 -16.828125 11.03125 -16.828125 Z M 5.9375 -8.65625 L 5.9375 -2.96875 L 11.03125 -2.96875 C 12.351562 -2.96875 13.375 -3.21875 14.09375 -3.71875 C 14.820312 -4.21875 15.1875 -4.929688 15.1875 -5.859375 C 15.1875 -6.722656 14.816406 -7.40625 14.078125 -7.90625 C 13.347656 -8.40625 12.332031 -8.65625 11.03125 -8.65625 Z M 5.9375 -8.65625 "/></g></g></g><g fill="#ffffff" fill-opacity="1"><g transform="translate(141.943847, 227.716334)"><g><path d="M 3.984375 -17 C 6.003906 -18.914062 8.492188 -19.875 11.453125 -19.875 C 14.410156 -19.875 16.898438 -18.914062 18.921875 -17 C 20.941406 -15.09375 21.953125 -12.722656 21.953125 -9.890625 C 21.953125 -7.066406 20.941406 -4.6875 18.921875 -2.75 C 16.898438 -0.820312 14.410156 0.140625 11.453125 0.140625 C 8.492188 0.140625 6.003906 -0.820312 3.984375 -2.75 C 1.972656 -4.6875 0.96875 -7.066406 0.96875 -9.890625 C 0.96875 -12.722656 1.972656 -15.09375 3.984375 -17 Z M 11.484375 -16.890625 C 9.523438 -16.890625 7.847656 -16.210938 6.453125 -14.859375 C 5.054688 -13.515625 4.359375 -11.859375 4.359375 -9.890625 C 4.359375 -7.929688 5.054688 -6.269531 6.453125 -4.90625 C 7.859375 -3.539062 9.53125 -2.859375 11.46875 -2.859375 C 13.414062 -2.859375 15.078125 -3.539062 16.453125 -4.90625 C 17.835938 -6.269531 18.53125 -7.929688 18.53125 -9.890625 C 18.53125 -11.859375 17.835938 -13.515625 16.453125 -14.859375 C 15.078125 -16.210938 13.421875 -16.890625 11.484375 -16.890625 Z M 11.484375 -16.890625 "/></g></g></g><g fill="#ffffff" fill-opacity="1"><g transform="translate(171.144813, 227.716334)"><g><path d="M 8.6875 -7.5 L 1.71875 -7.5 L 1.71875 -9.734375 L 8.6875 -9.734375 Z M 8.6875 -7.5 "/></g></g></g><g fill="#ffffff" fill-opacity="1"><g transform="translate(187.852373, 227.716334)"><g><path d="M 15.390625 -4.46875 L 5.40625 -4.46875 L 3.5 0 L 0.03125 0 L 8.765625 -19.796875 L 12.1875 -19.796875 L 20.84375 0 L 17.28125 0 Z M 14.109375 -7.4375 L 10.375 -16.234375 L 6.640625 -7.4375 Z M 14.109375 -7.4375 "/></g></g></g><g fill="#ffffff" fill-opacity="1"><g transform="translate(215.018208, 227.716334)"><g><path d="M 2.609375 -19.796875 L 10.71875 -19.796875 C 13.675781 -19.796875 16.117188 -18.863281 18.046875 -17 C 19.984375 -15.132812 20.953125 -12.765625 20.953125 -9.890625 C 20.953125 -7.023438 19.976562 -4.660156 18.03125 -2.796875 C 16.09375 -0.929688 13.628906 0 10.640625 0 L 2.609375 0 Z M 5.9375 -16.796875 L 5.9375 -3 L 10.796875 -3 C 12.742188 -3 14.363281 -3.644531 15.65625 -4.9375 C 16.945312 -6.226562 17.59375 -7.875 17.59375 -9.875 C 17.59375 -11.875 16.925781 -13.523438 15.59375 -14.828125 C 14.269531 -16.140625 12.625 -16.796875 10.65625 -16.796875 Z M 5.9375 -16.796875 "/></g></g></g><g fill="#ffffff" fill-opacity="1"><g transform="translate(243.229883, 227.716334)"><g><path d="M 11.421875 0 L 7.96875 0 L 0.078125 -19.796875 L 3.671875 -19.796875 L 9.78125 -3.703125 L 15.953125 -19.796875 L 19.421875 -19.796875 Z M 11.421875 0 "/></g></g></g><g fill="#ffffff" fill-opacity="1"><g transform="translate(269.038987, 227.716334)"><g><path d="M 5.9375 0 L 2.609375 0 L 2.609375 -19.796875 L 5.9375 -19.796875 Z M 5.9375 0 "/></g></g></g><g fill="#ffffff" fill-opacity="1"><g transform="translate(283.881012, 227.716334)"><g><path d="M 17.625 -17.390625 L 5.578125 -3 L 17.765625 -3 L 17.765625 0 L 1.046875 0 L 1.046875 -2.40625 L 13.125 -16.796875 L 1.40625 -16.796875 L 1.40625 -19.796875 L 17.625 -19.796875 Z M 17.625 -17.390625 "/></g></g></g><g fill="#ffffff" fill-opacity="1"><g transform="translate(309.011732, 227.716334)"><g><path d="M 16.75 -16.796875 L 5.9375 -16.796875 L 5.9375 -11.453125 L 15.609375 -11.453125 L 15.609375 -8.453125 L 5.9375 -8.453125 L 5.9375 -3 L 17.078125 -3 L 17.078125 0 L 2.609375 0 L 2.609375 -19.796875 L 16.75 -19.796875 Z M 16.75 -16.796875 "/></g></g></g><g fill="#ffffff" fill-opacity="1"><g transform="translate(119.631551, 249.571097)"><g><path d="M 6.484375 -6.875 L 2.421875 -6.875 L 2.421875 -4.53125 L 6.109375 -4.53125 L 6.109375 -3.3125 L 2.421875 -3.3125 L 2.421875 0 L 1.0625 0 L 1.0625 -8.09375 L 6.5 -8.09375 Z M 6.484375 -6.875 "/></g></g></g><g fill="#ffffff" fill-opacity="1"><g transform="translate(129.167422, 249.571097)"><g><path d="M 2.421875 0 L 1.0625 0 L 1.0625 -8.09375 L 2.421875 -8.09375 Z M 2.421875 0 "/></g></g></g><g fill="#ffffff" fill-opacity="1"><g transform="translate(135.54889, 249.571097)"><g><path d="M 8.078125 0 L 6.734375 0 L 2.421875 -5.796875 L 2.421875 0 L 1.0625 0 L 1.0625 -8.09375 L 2.40625 -8.09375 L 6.734375 -2.28125 L 6.734375 -8.09375 L 8.078125 -8.09375 Z M 8.078125 0 "/></g></g></g><g fill="#ffffff" fill-opacity="1"><g transform="translate(147.592115, 249.571097)"><g><path d="M 6.296875 -1.828125 L 2.203125 -1.828125 L 1.4375 0 L 0.015625 0 L 3.578125 -8.09375 L 4.984375 -8.09375 L 8.515625 0 L 7.0625 0 Z M 5.765625 -3.046875 L 4.25 -6.640625 L 2.71875 -3.046875 Z M 5.765625 -3.046875 "/></g></g></g><g fill="#ffffff" fill-opacity="1"><g transform="translate(159.011386, 249.571097)"><g><path d="M 8.078125 0 L 6.734375 0 L 2.421875 -5.796875 L 2.421875 0 L 1.0625 0 L 1.0625 -8.09375 L 2.40625 -8.09375 L 6.734375 -2.28125 L 6.734375 -8.09375 L 8.078125 -8.09375 Z M 8.078125 0 "/></g></g></g><g fill="#ffffff" fill-opacity="1"><g transform="translate(171.054613, 249.571097)"><g><path d="M 4.640625 -8.125 C 5.210938 -8.125 5.769531 -8.015625 6.3125 -7.796875 C 6.863281 -7.578125 7.332031 -7.269531 7.71875 -6.875 L 6.921875 -5.890625 C 6.628906 -6.203125 6.28125 -6.453125 5.875 -6.640625 C 5.476562 -6.828125 5.078125 -6.921875 4.671875 -6.921875 C 3.859375 -6.921875 3.171875 -6.644531 2.609375 -6.09375 C 2.054688 -5.539062 1.78125 -4.863281 1.78125 -4.0625 C 1.78125 -3.269531 2.054688 -2.597656 2.609375 -2.046875 C 3.171875 -1.492188 3.859375 -1.21875 4.671875 -1.21875 C 5.515625 -1.21875 6.265625 -1.535156 6.921875 -2.171875 L 7.734375 -1.265625 C 7.316406 -0.859375 6.832031 -0.535156 6.28125 -0.296875 C 5.726562 -0.0546875 5.171875 0.0625 4.609375 0.0625 C 3.421875 0.0625 2.421875 -0.332031 1.609375 -1.125 C 0.796875 -1.914062 0.390625 -2.894531 0.390625 -4.0625 C 0.390625 -5.207031 0.800781 -6.171875 1.625 -6.953125 C 2.445312 -7.734375 3.453125 -8.125 4.640625 -8.125 Z M 4.640625 -8.125 "/></g></g></g><g fill="#ffffff" fill-opacity="1"><g transform="translate(182.000142, 249.571097)"><g><path d="M 6.84375 -6.875 L 2.421875 -6.875 L 2.421875 -4.6875 L 6.375 -4.6875 L 6.375 -3.453125 L 2.421875 -3.453125 L 2.421875 -1.21875 L 6.984375 -1.21875 L 6.984375 0 L 1.0625 0 L 1.0625 -8.09375 L 6.84375 -8.09375 Z M 6.84375 -6.875 "/></g></g></g><g fill="#ffffff" fill-opacity="1"><g transform="translate(192.471943, 249.571097)"><g/></g></g><g fill="#ffffff" fill-opacity="1"><g transform="translate(198.345005, 249.571097)"><g><path d="M 6.59375 -6.875 L 4.03125 -6.875 L 4.03125 0 L 2.65625 0 L 2.65625 -6.875 L 0.109375 -6.875 L 0.109375 -8.09375 L 6.59375 -8.09375 Z M 6.59375 -6.875 "/></g></g></g><g fill="#ffffff" fill-opacity="1"><g transform="translate(207.927096, 249.571097)"><g><path d="M 1.625 -6.953125 C 2.457031 -7.734375 3.476562 -8.125 4.6875 -8.125 C 5.894531 -8.125 6.910156 -7.734375 7.734375 -6.953125 C 8.554688 -6.171875 8.96875 -5.203125 8.96875 -4.046875 C 8.96875 -2.890625 8.554688 -1.914062 7.734375 -1.125 C 6.910156 -0.332031 5.894531 0.0625 4.6875 0.0625 C 3.476562 0.0625 2.457031 -0.332031 1.625 -1.125 C 0.800781 -1.914062 0.390625 -2.890625 0.390625 -4.046875 C 0.390625 -5.203125 0.800781 -6.171875 1.625 -6.953125 Z M 4.6875 -6.90625 C 3.882812 -6.90625 3.195312 -6.628906 2.625 -6.078125 C 2.0625 -5.523438 1.78125 -4.847656 1.78125 -4.046875 C 1.78125 -3.242188 2.066406 -2.5625 2.640625 -2 C 3.210938 -1.445312 3.894531 -1.171875 4.6875 -1.171875 C 5.488281 -1.171875 6.171875 -1.445312 6.734375 -2 C 7.296875 -2.5625 7.578125 -3.242188 7.578125 -4.046875 C 7.578125 -4.847656 7.296875 -5.523438 6.734375 -6.078125 C 6.171875 -6.628906 5.488281 -6.90625 4.6875 -6.90625 Z M 4.6875 -6.90625 "/></g></g></g><g fill="#ffffff" fill-opacity="1"><g transform="translate(220.178305, 249.571097)"><g><path d="M 1.0625 -8.09375 L 4.296875 -8.09375 C 5.304688 -8.09375 6.09375 -7.851562 6.65625 -7.375 C 7.21875 -6.894531 7.5 -6.210938 7.5 -5.328125 C 7.5 -4.410156 7.21875 -3.695312 6.65625 -3.1875 C 6.09375 -2.6875 5.304688 -2.4375 4.296875 -2.4375 L 2.421875 -2.4375 L 2.421875 0 L 1.0625 0 Z M 2.421875 -6.875 L 2.421875 -3.671875 L 4.234375 -3.671875 C 5.535156 -3.671875 6.1875 -4.210938 6.1875 -5.296875 C 6.1875 -6.347656 5.535156 -6.875 4.234375 -6.875 Z M 2.421875 -6.875 "/></g></g></g><g fill="#ffffff" fill-opacity="1"><g transform="translate(230.846532, 249.571097)"><g><path d="M 2.421875 0 L 1.0625 0 L 1.0625 -8.09375 L 2.421875 -8.09375 Z M 2.421875 0 "/></g></g></g><g fill="#ffffff" fill-opacity="1"><g transform="translate(237.227998, 249.571097)"><g><path d="M 4.640625 -8.125 C 5.210938 -8.125 5.769531 -8.015625 6.3125 -7.796875 C 6.863281 -7.578125 7.332031 -7.269531 7.71875 -6.875 L 6.921875 -5.890625 C 6.628906 -6.203125 6.28125 -6.453125 5.875 -6.640625 C 5.476562 -6.828125 5.078125 -6.921875 4.671875 -6.921875 C 3.859375 -6.921875 3.171875 -6.644531 2.609375 -6.09375 C 2.054688 -5.539062 1.78125 -4.863281 1.78125 -4.0625 C 1.78125 -3.269531 2.054688 -2.597656 2.609375 -2.046875 C 3.171875 -1.492188 3.859375 -1.21875 4.671875 -1.21875 C 5.515625 -1.21875 6.265625 -1.535156 6.921875 -2.171875 L 7.734375 -1.265625 C 7.316406 -0.859375 6.832031 -0.535156 6.28125 -0.296875 C 5.726562 -0.0546875 5.171875 0.0625 4.609375 0.0625 C 3.421875 0.0625 2.421875 -0.332031 1.609375 -1.125 C 0.796875 -1.914062 0.390625 -2.894531 0.390625 -4.0625 C 0.390625 -5.207031 0.800781 -6.171875 1.625 -6.953125 C 2.445312 -7.734375 3.453125 -8.125 4.640625 -8.125 Z M 4.640625 -8.125 "/></g></g></g><g fill="#ffffff" fill-opacity="1"><g transform="translate(248.173527, 249.571097)"><g><path d="M 3.71875 -8.15625 C 4.769531 -8.15625 5.71875 -7.875 6.5625 -7.3125 L 5.984375 -6.109375 C 5.160156 -6.617188 4.375 -6.875 3.625 -6.875 C 3.207031 -6.875 2.878906 -6.796875 2.640625 -6.640625 C 2.410156 -6.492188 2.296875 -6.285156 2.296875 -6.015625 C 2.296875 -5.753906 2.40625 -5.523438 2.625 -5.328125 C 2.84375 -5.140625 3.113281 -5 3.4375 -4.90625 C 3.757812 -4.820312 4.109375 -4.710938 4.484375 -4.578125 C 4.859375 -4.441406 5.207031 -4.300781 5.53125 -4.15625 C 5.863281 -4.007812 6.132812 -3.773438 6.34375 -3.453125 C 6.550781 -3.128906 6.65625 -2.742188 6.65625 -2.296875 C 6.65625 -1.578125 6.367188 -1.003906 5.796875 -0.578125 C 5.234375 -0.160156 4.503906 0.046875 3.609375 0.046875 C 2.992188 0.046875 2.394531 -0.0664062 1.8125 -0.296875 C 1.238281 -0.523438 0.734375 -0.835938 0.296875 -1.234375 L 0.890625 -2.421875 C 1.296875 -2.035156 1.742188 -1.738281 2.234375 -1.53125 C 2.722656 -1.332031 3.1875 -1.234375 3.625 -1.234375 C 4.101562 -1.234375 4.472656 -1.316406 4.734375 -1.484375 C 5.003906 -1.660156 5.140625 -1.90625 5.140625 -2.21875 C 5.140625 -2.5 5.03125 -2.734375 4.8125 -2.921875 C 4.601562 -3.109375 4.335938 -3.242188 4.015625 -3.328125 C 3.691406 -3.421875 3.335938 -3.53125 2.953125 -3.65625 C 2.578125 -3.78125 2.226562 -3.914062 1.90625 -4.0625 C 1.582031 -4.207031 1.3125 -4.4375 1.09375 -4.75 C 0.882812 -5.0625 0.78125 -5.441406 0.78125 -5.890625 C 0.78125 -6.578125 1.046875 -7.125 1.578125 -7.53125 C 2.117188 -7.945312 2.832031 -8.15625 3.71875 -8.15625 Z M 3.71875 -8.15625 "/></g></g></g></svg>